<mxfile host="app.diagrams.net" agent="Mozilla/5.0 (Windows NT 10.0; Win64; x64) AppleWebKit/537.36 (KHTML, like Gecko) Chrome/130.0.0.0 Safari/537.36" version="24.8.1">
  <diagram id="R2lEEEUBdFMjLlhIrx00" name="Page-1">
    <mxGraphModel grid="1" page="1" gridSize="10" guides="1" tooltips="1" connect="1" arrows="1" fold="1" pageScale="1" pageWidth="850" pageHeight="1100" math="0" shadow="0" extFonts="Permanent Marker^https://fonts.googleapis.com/css?family=Permanent+Marker">
      <root>
        <mxCell id="0" />
        <mxCell id="1" parent="0" />
        <mxCell id="uw1N92eC4PSF_1XVcPtk-5" style="edgeStyle=orthogonalEdgeStyle;rounded=0;orthogonalLoop=1;jettySize=auto;html=1;entryX=0;entryY=0.5;entryDx=0;entryDy=0;" edge="1" parent="1" source="H5FSk54tUPe8qnLVIvUM-1" target="uw1N92eC4PSF_1XVcPtk-3">
          <mxGeometry relative="1" as="geometry" />
        </mxCell>
        <mxCell id="uw1N92eC4PSF_1XVcPtk-6" style="edgeStyle=orthogonalEdgeStyle;rounded=0;orthogonalLoop=1;jettySize=auto;html=1;entryX=0;entryY=0.5;entryDx=0;entryDy=0;" edge="1" parent="1" source="H5FSk54tUPe8qnLVIvUM-1" target="uw1N92eC4PSF_1XVcPtk-1">
          <mxGeometry relative="1" as="geometry" />
        </mxCell>
        <mxCell id="uw1N92eC4PSF_1XVcPtk-7" style="edgeStyle=orthogonalEdgeStyle;rounded=0;orthogonalLoop=1;jettySize=auto;html=1;entryX=0;entryY=0.5;entryDx=0;entryDy=0;" edge="1" parent="1" source="H5FSk54tUPe8qnLVIvUM-1" target="uw1N92eC4PSF_1XVcPtk-2">
          <mxGeometry relative="1" as="geometry" />
        </mxCell>
        <mxCell id="uw1N92eC4PSF_1XVcPtk-9" style="edgeStyle=orthogonalEdgeStyle;rounded=0;orthogonalLoop=1;jettySize=auto;html=1;exitX=0;exitY=0.5;exitDx=0;exitDy=0;entryX=1;entryY=0.5;entryDx=0;entryDy=0;" edge="1" parent="1" source="H5FSk54tUPe8qnLVIvUM-1" target="g__GbInx5uLJ7qhkef1c-1">
          <mxGeometry relative="1" as="geometry" />
        </mxCell>
        <mxCell id="uw1N92eC4PSF_1XVcPtk-12" value="" style="edgeStyle=orthogonalEdgeStyle;rounded=0;orthogonalLoop=1;jettySize=auto;html=1;" edge="1" parent="1" source="H5FSk54tUPe8qnLVIvUM-1" target="uw1N92eC4PSF_1XVcPtk-11">
          <mxGeometry relative="1" as="geometry" />
        </mxCell>
        <mxCell id="uw1N92eC4PSF_1XVcPtk-61" style="edgeStyle=orthogonalEdgeStyle;rounded=0;orthogonalLoop=1;jettySize=auto;html=1;entryX=0;entryY=0.5;entryDx=0;entryDy=0;" edge="1" parent="1" source="H5FSk54tUPe8qnLVIvUM-1" target="uw1N92eC4PSF_1XVcPtk-60">
          <mxGeometry relative="1" as="geometry" />
        </mxCell>
        <mxCell id="uw1N92eC4PSF_1XVcPtk-64" style="edgeStyle=orthogonalEdgeStyle;rounded=0;orthogonalLoop=1;jettySize=auto;html=1;entryX=0;entryY=0.5;entryDx=0;entryDy=0;" edge="1" parent="1" source="H5FSk54tUPe8qnLVIvUM-1" target="uw1N92eC4PSF_1XVcPtk-62">
          <mxGeometry relative="1" as="geometry" />
        </mxCell>
        <mxCell id="uw1N92eC4PSF_1XVcPtk-65" style="edgeStyle=orthogonalEdgeStyle;rounded=0;orthogonalLoop=1;jettySize=auto;html=1;entryX=0;entryY=0.5;entryDx=0;entryDy=0;" edge="1" parent="1" source="H5FSk54tUPe8qnLVIvUM-1" target="uw1N92eC4PSF_1XVcPtk-63">
          <mxGeometry relative="1" as="geometry" />
        </mxCell>
        <object label="Farmers" id="H5FSk54tUPe8qnLVIvUM-1">
          <mxCell style="whiteSpace=wrap;html=1;align=center;" vertex="1" parent="1">
            <mxGeometry y="10" width="100" height="40" as="geometry" />
          </mxCell>
        </object>
        <mxCell id="uw1N92eC4PSF_1XVcPtk-15" style="edgeStyle=orthogonalEdgeStyle;rounded=0;orthogonalLoop=1;jettySize=auto;html=1;entryX=0;entryY=0.5;entryDx=0;entryDy=0;" edge="1" parent="1" source="H5FSk54tUPe8qnLVIvUM-2" target="uw1N92eC4PSF_1XVcPtk-14">
          <mxGeometry relative="1" as="geometry" />
        </mxCell>
        <mxCell id="uw1N92eC4PSF_1XVcPtk-38" style="edgeStyle=orthogonalEdgeStyle;rounded=0;orthogonalLoop=1;jettySize=auto;html=1;entryX=0;entryY=0.5;entryDx=0;entryDy=0;" edge="1" parent="1" source="H5FSk54tUPe8qnLVIvUM-2" target="uw1N92eC4PSF_1XVcPtk-36">
          <mxGeometry relative="1" as="geometry" />
        </mxCell>
        <mxCell id="uw1N92eC4PSF_1XVcPtk-47" style="edgeStyle=orthogonalEdgeStyle;rounded=0;orthogonalLoop=1;jettySize=auto;html=1;entryX=0;entryY=0.5;entryDx=0;entryDy=0;" edge="1" parent="1" source="H5FSk54tUPe8qnLVIvUM-2" target="uw1N92eC4PSF_1XVcPtk-46">
          <mxGeometry relative="1" as="geometry" />
        </mxCell>
        <mxCell id="uw1N92eC4PSF_1XVcPtk-81" style="edgeStyle=orthogonalEdgeStyle;rounded=0;orthogonalLoop=1;jettySize=auto;html=1;entryX=0.5;entryY=1;entryDx=0;entryDy=0;" edge="1" parent="1" source="H5FSk54tUPe8qnLVIvUM-2" target="uw1N92eC4PSF_1XVcPtk-78">
          <mxGeometry relative="1" as="geometry" />
        </mxCell>
        <mxCell id="uw1N92eC4PSF_1XVcPtk-84" style="edgeStyle=orthogonalEdgeStyle;rounded=0;orthogonalLoop=1;jettySize=auto;html=1;entryX=0.5;entryY=1;entryDx=0;entryDy=0;" edge="1" parent="1" source="H5FSk54tUPe8qnLVIvUM-2" target="uw1N92eC4PSF_1XVcPtk-83">
          <mxGeometry relative="1" as="geometry" />
        </mxCell>
        <mxCell id="uw1N92eC4PSF_1XVcPtk-85" style="edgeStyle=orthogonalEdgeStyle;rounded=0;orthogonalLoop=1;jettySize=auto;html=1;" edge="1" parent="1" source="H5FSk54tUPe8qnLVIvUM-2" target="uw1N92eC4PSF_1XVcPtk-77">
          <mxGeometry relative="1" as="geometry" />
        </mxCell>
        <mxCell id="uw1N92eC4PSF_1XVcPtk-86" style="edgeStyle=orthogonalEdgeStyle;rounded=0;orthogonalLoop=1;jettySize=auto;html=1;entryX=0.5;entryY=1;entryDx=0;entryDy=0;" edge="1" parent="1" source="H5FSk54tUPe8qnLVIvUM-2" target="uw1N92eC4PSF_1XVcPtk-82">
          <mxGeometry relative="1" as="geometry" />
        </mxCell>
        <mxCell id="H5FSk54tUPe8qnLVIvUM-2" value="Plots" style="whiteSpace=wrap;html=1;align=center;" vertex="1" parent="1">
          <mxGeometry x="360" y="10" width="100" height="40" as="geometry" />
        </mxCell>
        <mxCell id="g__GbInx5uLJ7qhkef1c-1" value="FarmerID&lt;span style=&quot;color: rgba(0, 0, 0, 0); font-family: monospace; font-size: 0px; text-align: start; text-wrap-mode: nowrap;&quot;&gt;%3CmxGraphModel%3E%3Croot%3E%3CmxCell%20id%3D%220%22%2F%3E%3CmxCell%20id%3D%221%22%20parent%3D%220%22%2F%3E%3CmxCell%20id%3D%222%22%20value%3D%22Attribute%22%20style%3D%22ellipse%3BwhiteSpace%3Dwrap%3Bhtml%3D1%3Balign%3Dcenter%3B%22%20vertex%3D%221%22%20parent%3D%221%22%3E%3CmxGeometry%20x%3D%22150%22%20y%3D%2280%22%20width%3D%22100%22%20height%3D%2240%22%20as%3D%22geometry%22%2F%3E%3C%2FmxCell%3E%3C%2Froot%3E%3C%2FmxGraphModel%3E&lt;/span&gt;" style="ellipse;whiteSpace=wrap;html=1;align=center;" vertex="1" parent="1">
          <mxGeometry x="-200" y="50" width="80" height="30" as="geometry" />
        </mxCell>
        <mxCell id="uw1N92eC4PSF_1XVcPtk-1" value="name" style="ellipse;whiteSpace=wrap;html=1;align=center;" vertex="1" parent="1">
          <mxGeometry x="-220" y="110" width="80" height="30" as="geometry" />
        </mxCell>
        <mxCell id="uw1N92eC4PSF_1XVcPtk-2" value="location" style="ellipse;whiteSpace=wrap;html=1;align=center;" vertex="1" parent="1">
          <mxGeometry x="-260" y="230" width="90" height="30" as="geometry" />
        </mxCell>
        <mxCell id="uw1N92eC4PSF_1XVcPtk-3" value="Contact Info" style="ellipse;whiteSpace=wrap;html=1;align=center;" vertex="1" parent="1">
          <mxGeometry x="-240" y="170" width="80" height="30" as="geometry" />
        </mxCell>
        <mxCell id="uw1N92eC4PSF_1XVcPtk-13" style="edgeStyle=orthogonalEdgeStyle;rounded=0;orthogonalLoop=1;jettySize=auto;html=1;entryX=0;entryY=0.5;entryDx=0;entryDy=0;" edge="1" parent="1" source="uw1N92eC4PSF_1XVcPtk-11" target="H5FSk54tUPe8qnLVIvUM-2">
          <mxGeometry relative="1" as="geometry" />
        </mxCell>
        <mxCell id="uw1N92eC4PSF_1XVcPtk-11" value="owns" style="rhombus;whiteSpace=wrap;html=1;" vertex="1" parent="1">
          <mxGeometry x="190" y="-10" width="80" height="80" as="geometry" />
        </mxCell>
        <mxCell id="uw1N92eC4PSF_1XVcPtk-17" style="edgeStyle=orthogonalEdgeStyle;rounded=0;orthogonalLoop=1;jettySize=auto;html=1;entryX=0;entryY=0.5;entryDx=0;entryDy=0;" edge="1" parent="1" source="uw1N92eC4PSF_1XVcPtk-14" target="uw1N92eC4PSF_1XVcPtk-16">
          <mxGeometry relative="1" as="geometry" />
        </mxCell>
        <mxCell id="uw1N92eC4PSF_1XVcPtk-14" value="has" style="shape=rhombus;double=1;perimeter=rhombusPerimeter;whiteSpace=wrap;html=1;align=center;" vertex="1" parent="1">
          <mxGeometry x="570" y="60" width="120" height="60" as="geometry" />
        </mxCell>
        <mxCell id="uw1N92eC4PSF_1XVcPtk-24" style="edgeStyle=orthogonalEdgeStyle;rounded=0;orthogonalLoop=1;jettySize=auto;html=1;entryX=0;entryY=0.5;entryDx=0;entryDy=0;" edge="1" parent="1" source="uw1N92eC4PSF_1XVcPtk-16" target="uw1N92eC4PSF_1XVcPtk-18">
          <mxGeometry relative="1" as="geometry" />
        </mxCell>
        <mxCell id="uw1N92eC4PSF_1XVcPtk-25" style="edgeStyle=orthogonalEdgeStyle;rounded=0;orthogonalLoop=1;jettySize=auto;html=1;entryX=0;entryY=0.5;entryDx=0;entryDy=0;" edge="1" parent="1" source="uw1N92eC4PSF_1XVcPtk-16" target="uw1N92eC4PSF_1XVcPtk-19">
          <mxGeometry relative="1" as="geometry" />
        </mxCell>
        <mxCell id="uw1N92eC4PSF_1XVcPtk-26" style="edgeStyle=orthogonalEdgeStyle;rounded=0;orthogonalLoop=1;jettySize=auto;html=1;entryX=0;entryY=0.5;entryDx=0;entryDy=0;" edge="1" parent="1" source="uw1N92eC4PSF_1XVcPtk-16" target="uw1N92eC4PSF_1XVcPtk-20">
          <mxGeometry relative="1" as="geometry" />
        </mxCell>
        <mxCell id="uw1N92eC4PSF_1XVcPtk-27" style="edgeStyle=orthogonalEdgeStyle;rounded=0;orthogonalLoop=1;jettySize=auto;html=1;entryX=0;entryY=0.5;entryDx=0;entryDy=0;" edge="1" parent="1" source="uw1N92eC4PSF_1XVcPtk-16" target="uw1N92eC4PSF_1XVcPtk-21">
          <mxGeometry relative="1" as="geometry" />
        </mxCell>
        <mxCell id="uw1N92eC4PSF_1XVcPtk-28" style="edgeStyle=orthogonalEdgeStyle;rounded=0;orthogonalLoop=1;jettySize=auto;html=1;entryX=0;entryY=0.5;entryDx=0;entryDy=0;" edge="1" parent="1" source="uw1N92eC4PSF_1XVcPtk-16" target="uw1N92eC4PSF_1XVcPtk-23">
          <mxGeometry relative="1" as="geometry" />
        </mxCell>
        <mxCell id="uw1N92eC4PSF_1XVcPtk-29" style="edgeStyle=orthogonalEdgeStyle;rounded=0;orthogonalLoop=1;jettySize=auto;html=1;entryX=0;entryY=0.5;entryDx=0;entryDy=0;" edge="1" parent="1" source="uw1N92eC4PSF_1XVcPtk-16" target="uw1N92eC4PSF_1XVcPtk-22">
          <mxGeometry relative="1" as="geometry" />
        </mxCell>
        <mxCell id="uw1N92eC4PSF_1XVcPtk-35" style="edgeStyle=orthogonalEdgeStyle;rounded=0;orthogonalLoop=1;jettySize=auto;html=1;entryX=0.5;entryY=0;entryDx=0;entryDy=0;" edge="1" parent="1" source="uw1N92eC4PSF_1XVcPtk-16" target="uw1N92eC4PSF_1XVcPtk-34">
          <mxGeometry relative="1" as="geometry" />
        </mxCell>
        <mxCell id="uw1N92eC4PSF_1XVcPtk-16" value="Crops" style="shape=ext;margin=3;double=1;whiteSpace=wrap;html=1;align=center;" vertex="1" parent="1">
          <mxGeometry x="780" y="10" width="100" height="40" as="geometry" />
        </mxCell>
        <mxCell id="uw1N92eC4PSF_1XVcPtk-18" value="crop ID" style="ellipse;whiteSpace=wrap;html=1;align=center;" vertex="1" parent="1">
          <mxGeometry x="1000" y="-220" width="140" height="30" as="geometry" />
        </mxCell>
        <mxCell id="uw1N92eC4PSF_1XVcPtk-19" value="Plot ID" style="ellipse;whiteSpace=wrap;html=1;align=center;" vertex="1" parent="1">
          <mxGeometry x="1030" y="-180" width="140" height="30" as="geometry" />
        </mxCell>
        <mxCell id="uw1N92eC4PSF_1XVcPtk-20" value="Croptype ID" style="ellipse;whiteSpace=wrap;html=1;align=center;" vertex="1" parent="1">
          <mxGeometry x="1060" y="-140" width="140" height="40" as="geometry" />
        </mxCell>
        <mxCell id="uw1N92eC4PSF_1XVcPtk-21" value="Planting Date" style="ellipse;whiteSpace=wrap;html=1;align=center;" vertex="1" parent="1">
          <mxGeometry x="1105" y="-90" width="130" height="30" as="geometry" />
        </mxCell>
        <mxCell id="uw1N92eC4PSF_1XVcPtk-22" value="Harvesting Date" style="ellipse;whiteSpace=wrap;html=1;align=center;" vertex="1" parent="1">
          <mxGeometry x="1140" y="-40" width="110" height="30" as="geometry" />
        </mxCell>
        <mxCell id="uw1N92eC4PSF_1XVcPtk-23" value="Is Diversified" style="ellipse;whiteSpace=wrap;html=1;align=center;" vertex="1" parent="1">
          <mxGeometry x="1150" y="15" width="140" height="30" as="geometry" />
        </mxCell>
        <mxCell id="uw1N92eC4PSF_1XVcPtk-40" style="edgeStyle=orthogonalEdgeStyle;rounded=0;orthogonalLoop=1;jettySize=auto;html=1;entryX=0.5;entryY=0;entryDx=0;entryDy=0;" edge="1" parent="1" source="uw1N92eC4PSF_1XVcPtk-34" target="uw1N92eC4PSF_1XVcPtk-39">
          <mxGeometry relative="1" as="geometry" />
        </mxCell>
        <mxCell id="uw1N92eC4PSF_1XVcPtk-34" value="have different" style="shape=rhombus;double=1;perimeter=rhombusPerimeter;whiteSpace=wrap;html=1;align=center;" vertex="1" parent="1">
          <mxGeometry x="770" y="110" width="120" height="60" as="geometry" />
        </mxCell>
        <mxCell id="uw1N92eC4PSF_1XVcPtk-41" style="edgeStyle=orthogonalEdgeStyle;rounded=0;orthogonalLoop=1;jettySize=auto;html=1;entryX=0;entryY=0.5;entryDx=0;entryDy=0;" edge="1" parent="1" source="uw1N92eC4PSF_1XVcPtk-36" target="uw1N92eC4PSF_1XVcPtk-39">
          <mxGeometry relative="1" as="geometry" />
        </mxCell>
        <mxCell id="uw1N92eC4PSF_1XVcPtk-36" value="grows" style="shape=rhombus;double=1;perimeter=rhombusPerimeter;whiteSpace=wrap;html=1;align=center;" vertex="1" parent="1">
          <mxGeometry x="450" y="200" width="120" height="60" as="geometry" />
        </mxCell>
        <mxCell id="uw1N92eC4PSF_1XVcPtk-44" style="edgeStyle=orthogonalEdgeStyle;rounded=0;orthogonalLoop=1;jettySize=auto;html=1;entryX=0;entryY=0.5;entryDx=0;entryDy=0;" edge="1" parent="1" source="uw1N92eC4PSF_1XVcPtk-39" target="uw1N92eC4PSF_1XVcPtk-42">
          <mxGeometry relative="1" as="geometry" />
        </mxCell>
        <mxCell id="uw1N92eC4PSF_1XVcPtk-45" style="edgeStyle=orthogonalEdgeStyle;rounded=0;orthogonalLoop=1;jettySize=auto;html=1;entryX=0;entryY=0.5;entryDx=0;entryDy=0;" edge="1" parent="1" source="uw1N92eC4PSF_1XVcPtk-39" target="uw1N92eC4PSF_1XVcPtk-43">
          <mxGeometry relative="1" as="geometry" />
        </mxCell>
        <mxCell id="uw1N92eC4PSF_1XVcPtk-39" value="crop types" style="shape=ext;margin=3;double=1;whiteSpace=wrap;html=1;align=center;" vertex="1" parent="1">
          <mxGeometry x="780" y="250" width="100" height="40" as="geometry" />
        </mxCell>
        <mxCell id="uw1N92eC4PSF_1XVcPtk-42" value="croptype name" style="ellipse;whiteSpace=wrap;html=1;align=center;" vertex="1" parent="1">
          <mxGeometry x="1000" y="220" width="130" height="30" as="geometry" />
        </mxCell>
        <mxCell id="uw1N92eC4PSF_1XVcPtk-43" value="croptypeID" style="ellipse;whiteSpace=wrap;html=1;align=center;" vertex="1" parent="1">
          <mxGeometry x="1000" y="270" width="130" height="30" as="geometry" />
        </mxCell>
        <mxCell id="uw1N92eC4PSF_1XVcPtk-49" style="edgeStyle=orthogonalEdgeStyle;rounded=0;orthogonalLoop=1;jettySize=auto;html=1;" edge="1" parent="1" source="uw1N92eC4PSF_1XVcPtk-46" target="uw1N92eC4PSF_1XVcPtk-48">
          <mxGeometry relative="1" as="geometry" />
        </mxCell>
        <mxCell id="uw1N92eC4PSF_1XVcPtk-46" value="have" style="shape=rhombus;double=1;perimeter=rhombusPerimeter;whiteSpace=wrap;html=1;align=center;" vertex="1" parent="1">
          <mxGeometry x="450" y="340" width="120" height="60" as="geometry" />
        </mxCell>
        <mxCell id="uw1N92eC4PSF_1XVcPtk-55" style="edgeStyle=orthogonalEdgeStyle;rounded=0;orthogonalLoop=1;jettySize=auto;html=1;" edge="1" parent="1" source="uw1N92eC4PSF_1XVcPtk-48" target="uw1N92eC4PSF_1XVcPtk-54">
          <mxGeometry relative="1" as="geometry" />
        </mxCell>
        <mxCell id="uw1N92eC4PSF_1XVcPtk-56" style="edgeStyle=orthogonalEdgeStyle;rounded=0;orthogonalLoop=1;jettySize=auto;html=1;entryX=0;entryY=0.5;entryDx=0;entryDy=0;" edge="1" parent="1" source="uw1N92eC4PSF_1XVcPtk-48" target="uw1N92eC4PSF_1XVcPtk-53">
          <mxGeometry relative="1" as="geometry" />
        </mxCell>
        <mxCell id="uw1N92eC4PSF_1XVcPtk-57" style="edgeStyle=orthogonalEdgeStyle;rounded=0;orthogonalLoop=1;jettySize=auto;html=1;entryX=0;entryY=0.5;entryDx=0;entryDy=0;" edge="1" parent="1" source="uw1N92eC4PSF_1XVcPtk-48" target="uw1N92eC4PSF_1XVcPtk-52">
          <mxGeometry relative="1" as="geometry" />
        </mxCell>
        <mxCell id="uw1N92eC4PSF_1XVcPtk-58" style="edgeStyle=orthogonalEdgeStyle;rounded=0;orthogonalLoop=1;jettySize=auto;html=1;entryX=0;entryY=0.5;entryDx=0;entryDy=0;" edge="1" parent="1" source="uw1N92eC4PSF_1XVcPtk-48" target="uw1N92eC4PSF_1XVcPtk-51">
          <mxGeometry relative="1" as="geometry" />
        </mxCell>
        <mxCell id="uw1N92eC4PSF_1XVcPtk-59" style="edgeStyle=orthogonalEdgeStyle;rounded=0;orthogonalLoop=1;jettySize=auto;html=1;entryX=0;entryY=0.5;entryDx=0;entryDy=0;" edge="1" parent="1" source="uw1N92eC4PSF_1XVcPtk-48" target="uw1N92eC4PSF_1XVcPtk-50">
          <mxGeometry relative="1" as="geometry" />
        </mxCell>
        <mxCell id="uw1N92eC4PSF_1XVcPtk-48" value="Inventory" style="shape=ext;margin=3;double=1;whiteSpace=wrap;html=1;align=center;" vertex="1" parent="1">
          <mxGeometry x="780" y="400" width="100" height="40" as="geometry" />
        </mxCell>
        <mxCell id="uw1N92eC4PSF_1XVcPtk-50" value="Unit" style="ellipse;whiteSpace=wrap;html=1;align=center;" vertex="1" parent="1">
          <mxGeometry x="1165" y="640" width="140" height="40" as="geometry" />
        </mxCell>
        <mxCell id="uw1N92eC4PSF_1XVcPtk-51" value="Quantity" style="ellipse;whiteSpace=wrap;html=1;align=center;" vertex="1" parent="1">
          <mxGeometry x="1135" y="570" width="145" height="50" as="geometry" />
        </mxCell>
        <mxCell id="uw1N92eC4PSF_1XVcPtk-52" value="Item name" style="ellipse;whiteSpace=wrap;html=1;align=center;" vertex="1" parent="1">
          <mxGeometry x="1095" y="510" width="140" height="40" as="geometry" />
        </mxCell>
        <mxCell id="uw1N92eC4PSF_1XVcPtk-53" value="PlotID" style="ellipse;whiteSpace=wrap;html=1;align=center;" vertex="1" parent="1">
          <mxGeometry x="1060" y="440" width="140" height="40" as="geometry" />
        </mxCell>
        <mxCell id="uw1N92eC4PSF_1XVcPtk-54" value="InventoryID" style="ellipse;whiteSpace=wrap;html=1;align=center;" vertex="1" parent="1">
          <mxGeometry x="1030" y="380" width="135" height="40" as="geometry" />
        </mxCell>
        <mxCell id="uw1N92eC4PSF_1XVcPtk-72" style="edgeStyle=orthogonalEdgeStyle;rounded=0;orthogonalLoop=1;jettySize=auto;html=1;entryX=0;entryY=0.5;entryDx=0;entryDy=0;" edge="1" parent="1" source="uw1N92eC4PSF_1XVcPtk-60" target="uw1N92eC4PSF_1XVcPtk-66">
          <mxGeometry relative="1" as="geometry" />
        </mxCell>
        <mxCell id="uw1N92eC4PSF_1XVcPtk-60" value="Checks" style="shape=rhombus;perimeter=rhombusPerimeter;whiteSpace=wrap;html=1;align=center;" vertex="1" parent="1">
          <mxGeometry x="90" y="620" width="120" height="60" as="geometry" />
        </mxCell>
        <mxCell id="uw1N92eC4PSF_1XVcPtk-70" style="edgeStyle=orthogonalEdgeStyle;rounded=0;orthogonalLoop=1;jettySize=auto;html=1;entryX=0;entryY=0.5;entryDx=0;entryDy=0;" edge="1" parent="1" source="uw1N92eC4PSF_1XVcPtk-62" target="uw1N92eC4PSF_1XVcPtk-67">
          <mxGeometry relative="1" as="geometry" />
        </mxCell>
        <mxCell id="uw1N92eC4PSF_1XVcPtk-62" value="Does" style="shape=rhombus;perimeter=rhombusPerimeter;whiteSpace=wrap;html=1;align=center;" vertex="1" parent="1">
          <mxGeometry x="90" y="1200" width="120" height="60" as="geometry" />
        </mxCell>
        <mxCell id="uw1N92eC4PSF_1XVcPtk-71" style="edgeStyle=orthogonalEdgeStyle;rounded=0;orthogonalLoop=1;jettySize=auto;html=1;entryX=0;entryY=0.5;entryDx=0;entryDy=0;" edge="1" parent="1" source="uw1N92eC4PSF_1XVcPtk-63" target="uw1N92eC4PSF_1XVcPtk-68">
          <mxGeometry relative="1" as="geometry" />
        </mxCell>
        <mxCell id="uw1N92eC4PSF_1XVcPtk-63" value="Harvests" style="shape=rhombus;perimeter=rhombusPerimeter;whiteSpace=wrap;html=1;align=center;" vertex="1" parent="1">
          <mxGeometry x="80" y="1600" width="120" height="60" as="geometry" />
        </mxCell>
        <mxCell id="uw1N92eC4PSF_1XVcPtk-88" style="edgeStyle=orthogonalEdgeStyle;rounded=0;orthogonalLoop=1;jettySize=auto;html=1;entryX=0;entryY=0.5;entryDx=0;entryDy=0;" edge="1" parent="1" source="uw1N92eC4PSF_1XVcPtk-66" target="uw1N92eC4PSF_1XVcPtk-79">
          <mxGeometry relative="1" as="geometry" />
        </mxCell>
        <mxCell id="uw1N92eC4PSF_1XVcPtk-91" style="edgeStyle=orthogonalEdgeStyle;rounded=0;orthogonalLoop=1;jettySize=auto;html=1;" edge="1" parent="1" source="uw1N92eC4PSF_1XVcPtk-66" target="uw1N92eC4PSF_1XVcPtk-76">
          <mxGeometry relative="1" as="geometry" />
        </mxCell>
        <mxCell id="uw1N92eC4PSF_1XVcPtk-92" style="edgeStyle=orthogonalEdgeStyle;rounded=0;orthogonalLoop=1;jettySize=auto;html=1;entryX=0;entryY=0.5;entryDx=0;entryDy=0;" edge="1" parent="1" source="uw1N92eC4PSF_1XVcPtk-66" target="uw1N92eC4PSF_1XVcPtk-75">
          <mxGeometry relative="1" as="geometry" />
        </mxCell>
        <mxCell id="uw1N92eC4PSF_1XVcPtk-93" style="edgeStyle=orthogonalEdgeStyle;rounded=0;orthogonalLoop=1;jettySize=auto;html=1;entryX=0;entryY=0.5;entryDx=0;entryDy=0;" edge="1" parent="1" source="uw1N92eC4PSF_1XVcPtk-66" target="uw1N92eC4PSF_1XVcPtk-74">
          <mxGeometry relative="1" as="geometry" />
        </mxCell>
        <mxCell id="uw1N92eC4PSF_1XVcPtk-94" style="edgeStyle=orthogonalEdgeStyle;rounded=0;orthogonalLoop=1;jettySize=auto;html=1;entryX=0;entryY=0.5;entryDx=0;entryDy=0;" edge="1" parent="1" source="uw1N92eC4PSF_1XVcPtk-66" target="uw1N92eC4PSF_1XVcPtk-73">
          <mxGeometry relative="1" as="geometry" />
        </mxCell>
        <mxCell id="uw1N92eC4PSF_1XVcPtk-95" style="edgeStyle=orthogonalEdgeStyle;rounded=0;orthogonalLoop=1;jettySize=auto;html=1;entryX=0;entryY=0.5;entryDx=0;entryDy=0;" edge="1" parent="1" source="uw1N92eC4PSF_1XVcPtk-66" target="uw1N92eC4PSF_1XVcPtk-89">
          <mxGeometry relative="1" as="geometry" />
        </mxCell>
        <mxCell id="uw1N92eC4PSF_1XVcPtk-96" style="edgeStyle=orthogonalEdgeStyle;rounded=0;orthogonalLoop=1;jettySize=auto;html=1;entryX=0;entryY=0.5;entryDx=0;entryDy=0;" edge="1" parent="1" source="uw1N92eC4PSF_1XVcPtk-66" target="uw1N92eC4PSF_1XVcPtk-90">
          <mxGeometry relative="1" as="geometry" />
        </mxCell>
        <mxCell id="uw1N92eC4PSF_1XVcPtk-66" value="soil health" style="whiteSpace=wrap;html=1;align=center;" vertex="1" parent="1">
          <mxGeometry x="440" y="680" width="100" height="40" as="geometry" />
        </mxCell>
        <mxCell id="uw1N92eC4PSF_1XVcPtk-102" style="edgeStyle=orthogonalEdgeStyle;rounded=0;orthogonalLoop=1;jettySize=auto;html=1;entryX=0;entryY=0.5;entryDx=0;entryDy=0;" edge="1" parent="1" source="uw1N92eC4PSF_1XVcPtk-67" target="uw1N92eC4PSF_1XVcPtk-101">
          <mxGeometry relative="1" as="geometry" />
        </mxCell>
        <mxCell id="uw1N92eC4PSF_1XVcPtk-103" style="edgeStyle=orthogonalEdgeStyle;rounded=0;orthogonalLoop=1;jettySize=auto;html=1;entryX=0;entryY=0.5;entryDx=0;entryDy=0;" edge="1" parent="1" source="uw1N92eC4PSF_1XVcPtk-67" target="uw1N92eC4PSF_1XVcPtk-100">
          <mxGeometry relative="1" as="geometry" />
        </mxCell>
        <mxCell id="uw1N92eC4PSF_1XVcPtk-104" style="edgeStyle=orthogonalEdgeStyle;rounded=0;orthogonalLoop=1;jettySize=auto;html=1;entryX=0;entryY=0.5;entryDx=0;entryDy=0;" edge="1" parent="1" source="uw1N92eC4PSF_1XVcPtk-67" target="uw1N92eC4PSF_1XVcPtk-99">
          <mxGeometry relative="1" as="geometry" />
        </mxCell>
        <mxCell id="uw1N92eC4PSF_1XVcPtk-105" style="edgeStyle=orthogonalEdgeStyle;rounded=0;orthogonalLoop=1;jettySize=auto;html=1;entryX=0;entryY=0.5;entryDx=0;entryDy=0;" edge="1" parent="1" source="uw1N92eC4PSF_1XVcPtk-67" target="uw1N92eC4PSF_1XVcPtk-98">
          <mxGeometry relative="1" as="geometry" />
        </mxCell>
        <mxCell id="uw1N92eC4PSF_1XVcPtk-106" style="edgeStyle=orthogonalEdgeStyle;rounded=0;orthogonalLoop=1;jettySize=auto;html=1;entryX=0;entryY=0.5;entryDx=0;entryDy=0;" edge="1" parent="1" source="uw1N92eC4PSF_1XVcPtk-67" target="uw1N92eC4PSF_1XVcPtk-97">
          <mxGeometry relative="1" as="geometry" />
        </mxCell>
        <mxCell id="uw1N92eC4PSF_1XVcPtk-67" value="practices" style="whiteSpace=wrap;html=1;align=center;" vertex="1" parent="1">
          <mxGeometry x="440" y="1350" width="100" height="40" as="geometry" />
        </mxCell>
        <mxCell id="uw1N92eC4PSF_1XVcPtk-112" style="edgeStyle=orthogonalEdgeStyle;rounded=0;orthogonalLoop=1;jettySize=auto;html=1;entryX=0;entryY=0.5;entryDx=0;entryDy=0;" edge="1" parent="1" source="uw1N92eC4PSF_1XVcPtk-68" target="uw1N92eC4PSF_1XVcPtk-111">
          <mxGeometry relative="1" as="geometry" />
        </mxCell>
        <mxCell id="uw1N92eC4PSF_1XVcPtk-113" style="edgeStyle=orthogonalEdgeStyle;rounded=0;orthogonalLoop=1;jettySize=auto;html=1;entryX=0;entryY=0.5;entryDx=0;entryDy=0;" edge="1" parent="1" source="uw1N92eC4PSF_1XVcPtk-68" target="uw1N92eC4PSF_1XVcPtk-110">
          <mxGeometry relative="1" as="geometry" />
        </mxCell>
        <mxCell id="uw1N92eC4PSF_1XVcPtk-114" style="edgeStyle=orthogonalEdgeStyle;rounded=0;orthogonalLoop=1;jettySize=auto;html=1;entryX=0;entryY=0.5;entryDx=0;entryDy=0;" edge="1" parent="1" source="uw1N92eC4PSF_1XVcPtk-68" target="uw1N92eC4PSF_1XVcPtk-109">
          <mxGeometry relative="1" as="geometry" />
        </mxCell>
        <mxCell id="uw1N92eC4PSF_1XVcPtk-115" style="edgeStyle=orthogonalEdgeStyle;rounded=0;orthogonalLoop=1;jettySize=auto;html=1;entryX=0;entryY=0.5;entryDx=0;entryDy=0;" edge="1" parent="1" source="uw1N92eC4PSF_1XVcPtk-68" target="uw1N92eC4PSF_1XVcPtk-108">
          <mxGeometry relative="1" as="geometry" />
        </mxCell>
        <mxCell id="uw1N92eC4PSF_1XVcPtk-116" style="edgeStyle=orthogonalEdgeStyle;rounded=0;orthogonalLoop=1;jettySize=auto;html=1;entryX=0;entryY=0.5;entryDx=0;entryDy=0;" edge="1" parent="1" source="uw1N92eC4PSF_1XVcPtk-68" target="uw1N92eC4PSF_1XVcPtk-107">
          <mxGeometry relative="1" as="geometry" />
        </mxCell>
        <mxCell id="uw1N92eC4PSF_1XVcPtk-118" style="edgeStyle=orthogonalEdgeStyle;rounded=0;orthogonalLoop=1;jettySize=auto;html=1;entryX=0;entryY=0.5;entryDx=0;entryDy=0;" edge="1" parent="1" source="uw1N92eC4PSF_1XVcPtk-68" target="uw1N92eC4PSF_1XVcPtk-117">
          <mxGeometry relative="1" as="geometry" />
        </mxCell>
        <mxCell id="uw1N92eC4PSF_1XVcPtk-68" value="yield" style="whiteSpace=wrap;html=1;align=center;" vertex="1" parent="1">
          <mxGeometry x="440" y="1790" width="100" height="40" as="geometry" />
        </mxCell>
        <mxCell id="uw1N92eC4PSF_1XVcPtk-73" value="OrganicMatter" style="ellipse;whiteSpace=wrap;html=1;align=center;" vertex="1" parent="1">
          <mxGeometry x="660" y="920" width="100" height="40" as="geometry" />
        </mxCell>
        <mxCell id="uw1N92eC4PSF_1XVcPtk-74" value="SoilpH" style="ellipse;whiteSpace=wrap;html=1;align=center;" vertex="1" parent="1">
          <mxGeometry x="660" y="850" width="100" height="40" as="geometry" />
        </mxCell>
        <mxCell id="uw1N92eC4PSF_1XVcPtk-75" value="MonitoringDate" style="ellipse;whiteSpace=wrap;html=1;align=center;" vertex="1" parent="1">
          <mxGeometry x="660" y="770" width="100" height="40" as="geometry" />
        </mxCell>
        <mxCell id="uw1N92eC4PSF_1XVcPtk-76" value="PlotID" style="ellipse;whiteSpace=wrap;html=1;align=center;" vertex="1" parent="1">
          <mxGeometry x="660" y="690" width="100" height="40" as="geometry" />
        </mxCell>
        <mxCell id="uw1N92eC4PSF_1XVcPtk-77" value="Location" style="ellipse;whiteSpace=wrap;html=1;align=center;" vertex="1" parent="1">
          <mxGeometry x="440" y="-300" width="100" height="40" as="geometry" />
        </mxCell>
        <mxCell id="uw1N92eC4PSF_1XVcPtk-78" value="PlotID" style="ellipse;whiteSpace=wrap;html=1;align=center;" vertex="1" parent="1">
          <mxGeometry x="260" y="-380" width="100" height="40" as="geometry" />
        </mxCell>
        <mxCell id="uw1N92eC4PSF_1XVcPtk-79" value="MonitoringID" style="ellipse;whiteSpace=wrap;html=1;align=center;" vertex="1" parent="1">
          <mxGeometry x="660" y="630" width="100" height="40" as="geometry" />
        </mxCell>
        <mxCell id="uw1N92eC4PSF_1XVcPtk-82" value="Size" style="ellipse;whiteSpace=wrap;html=1;align=center;" vertex="1" parent="1">
          <mxGeometry x="525" y="-240" width="100" height="40" as="geometry" />
        </mxCell>
        <mxCell id="uw1N92eC4PSF_1XVcPtk-83" value="FarmerID" style="ellipse;whiteSpace=wrap;html=1;align=center;" vertex="1" parent="1">
          <mxGeometry x="340" y="-340" width="100" height="40" as="geometry" />
        </mxCell>
        <mxCell id="uw1N92eC4PSF_1XVcPtk-89" value="ErosionLevel" style="ellipse;whiteSpace=wrap;html=1;align=center;" vertex="1" parent="1">
          <mxGeometry x="660" y="1000" width="100" height="40" as="geometry" />
        </mxCell>
        <mxCell id="uw1N92eC4PSF_1XVcPtk-90" value="Notes" style="ellipse;whiteSpace=wrap;html=1;align=center;" vertex="1" parent="1">
          <mxGeometry x="660" y="1070" width="100" height="40" as="geometry" />
        </mxCell>
        <mxCell id="uw1N92eC4PSF_1XVcPtk-97" value="Description" style="ellipse;whiteSpace=wrap;html=1;align=center;" vertex="1" parent="1">
          <mxGeometry x="640" y="1580" width="130" height="60" as="geometry" />
        </mxCell>
        <mxCell id="uw1N92eC4PSF_1XVcPtk-98" value="StartDate" style="ellipse;whiteSpace=wrap;html=1;align=center;" vertex="1" parent="1">
          <mxGeometry x="645" y="1510" width="120" height="60" as="geometry" />
        </mxCell>
        <mxCell id="uw1N92eC4PSF_1XVcPtk-99" value="PracticeType" style="ellipse;whiteSpace=wrap;html=1;align=center;" vertex="1" parent="1">
          <mxGeometry x="647.5" y="1440" width="125" height="50" as="geometry" />
        </mxCell>
        <mxCell id="uw1N92eC4PSF_1XVcPtk-100" value="PlotID" style="ellipse;whiteSpace=wrap;html=1;align=center;" vertex="1" parent="1">
          <mxGeometry x="645" y="1370" width="120" height="50" as="geometry" />
        </mxCell>
        <mxCell id="uw1N92eC4PSF_1XVcPtk-101" value="PracticeID" style="ellipse;whiteSpace=wrap;html=1;align=center;" vertex="1" parent="1">
          <mxGeometry x="645" y="1290" width="125" height="60" as="geometry" />
        </mxCell>
        <mxCell id="uw1N92eC4PSF_1XVcPtk-107" value="TotalYield" style="ellipse;whiteSpace=wrap;html=1;align=center;" vertex="1" parent="1">
          <mxGeometry x="690" y="2100" width="130" height="60" as="geometry" />
        </mxCell>
        <mxCell id="uw1N92eC4PSF_1XVcPtk-108" value="Year" style="ellipse;whiteSpace=wrap;html=1;align=center;" vertex="1" parent="1">
          <mxGeometry x="687.5" y="2190" width="120" height="60" as="geometry" />
        </mxCell>
        <mxCell id="uw1N92eC4PSF_1XVcPtk-109" value="CropID" style="ellipse;whiteSpace=wrap;html=1;align=center;" vertex="1" parent="1">
          <mxGeometry x="690" y="2000" width="125" height="50" as="geometry" />
        </mxCell>
        <mxCell id="uw1N92eC4PSF_1XVcPtk-110" value="PlotID" style="ellipse;whiteSpace=wrap;html=1;align=center;" vertex="1" parent="1">
          <mxGeometry x="685" y="1850" width="120" height="50" as="geometry" />
        </mxCell>
        <mxCell id="uw1N92eC4PSF_1XVcPtk-111" value="YieldID" style="ellipse;whiteSpace=wrap;html=1;align=center;" vertex="1" parent="1">
          <mxGeometry x="687.5" y="1930" width="125" height="60" as="geometry" />
        </mxCell>
        <mxCell id="uw1N92eC4PSF_1XVcPtk-138" style="edgeStyle=orthogonalEdgeStyle;rounded=0;orthogonalLoop=1;jettySize=auto;html=1;entryX=0;entryY=0.5;entryDx=0;entryDy=0;" edge="1" parent="1" source="uw1N92eC4PSF_1XVcPtk-117" target="uw1N92eC4PSF_1XVcPtk-119">
          <mxGeometry relative="1" as="geometry" />
        </mxCell>
        <mxCell id="uw1N92eC4PSF_1XVcPtk-117" value="brings" style="shape=rhombus;double=1;perimeter=rhombusPerimeter;whiteSpace=wrap;html=1;align=center;" vertex="1" parent="1">
          <mxGeometry x="940" y="1780" width="120" height="60" as="geometry" />
        </mxCell>
        <mxCell id="uw1N92eC4PSF_1XVcPtk-131" style="edgeStyle=orthogonalEdgeStyle;rounded=0;orthogonalLoop=1;jettySize=auto;html=1;entryX=0;entryY=0.5;entryDx=0;entryDy=0;" edge="1" parent="1" source="uw1N92eC4PSF_1XVcPtk-119" target="uw1N92eC4PSF_1XVcPtk-124">
          <mxGeometry relative="1" as="geometry" />
        </mxCell>
        <mxCell id="uw1N92eC4PSF_1XVcPtk-132" style="edgeStyle=orthogonalEdgeStyle;rounded=0;orthogonalLoop=1;jettySize=auto;html=1;entryX=0;entryY=0.5;entryDx=0;entryDy=0;" edge="1" parent="1" source="uw1N92eC4PSF_1XVcPtk-119" target="uw1N92eC4PSF_1XVcPtk-123">
          <mxGeometry relative="1" as="geometry" />
        </mxCell>
        <mxCell id="uw1N92eC4PSF_1XVcPtk-133" style="edgeStyle=orthogonalEdgeStyle;rounded=0;orthogonalLoop=1;jettySize=auto;html=1;entryX=0;entryY=0.5;entryDx=0;entryDy=0;" edge="1" parent="1" source="uw1N92eC4PSF_1XVcPtk-119" target="uw1N92eC4PSF_1XVcPtk-122">
          <mxGeometry relative="1" as="geometry" />
        </mxCell>
        <mxCell id="uw1N92eC4PSF_1XVcPtk-135" style="edgeStyle=orthogonalEdgeStyle;rounded=0;orthogonalLoop=1;jettySize=auto;html=1;entryX=0;entryY=0.5;entryDx=0;entryDy=0;" edge="1" parent="1" source="uw1N92eC4PSF_1XVcPtk-119" target="uw1N92eC4PSF_1XVcPtk-121">
          <mxGeometry relative="1" as="geometry" />
        </mxCell>
        <mxCell id="uw1N92eC4PSF_1XVcPtk-136" style="edgeStyle=orthogonalEdgeStyle;rounded=0;orthogonalLoop=1;jettySize=auto;html=1;entryX=0;entryY=0.5;entryDx=0;entryDy=0;" edge="1" parent="1" source="uw1N92eC4PSF_1XVcPtk-119" target="uw1N92eC4PSF_1XVcPtk-120">
          <mxGeometry relative="1" as="geometry" />
        </mxCell>
        <mxCell id="uw1N92eC4PSF_1XVcPtk-137" style="edgeStyle=orthogonalEdgeStyle;rounded=0;orthogonalLoop=1;jettySize=auto;html=1;entryX=0;entryY=0.5;entryDx=0;entryDy=0;" edge="1" parent="1" source="uw1N92eC4PSF_1XVcPtk-119" target="uw1N92eC4PSF_1XVcPtk-130">
          <mxGeometry relative="1" as="geometry" />
        </mxCell>
        <mxCell id="uw1N92eC4PSF_1XVcPtk-119" value="Profit" style="shape=ext;margin=3;double=1;whiteSpace=wrap;html=1;align=center;" vertex="1" parent="1">
          <mxGeometry x="1275" y="1790" width="100" height="40" as="geometry" />
        </mxCell>
        <mxCell id="uw1N92eC4PSF_1XVcPtk-120" value="Cost" style="ellipse;whiteSpace=wrap;html=1;align=center;" vertex="1" parent="1">
          <mxGeometry x="1620" y="2130" width="130" height="60" as="geometry" />
        </mxCell>
        <mxCell id="uw1N92eC4PSF_1XVcPtk-121" value="Revenue" style="ellipse;whiteSpace=wrap;html=1;align=center;" vertex="1" parent="1">
          <mxGeometry x="1625" y="2060" width="120" height="60" as="geometry" />
        </mxCell>
        <mxCell id="uw1N92eC4PSF_1XVcPtk-122" value="Year" style="ellipse;whiteSpace=wrap;html=1;align=center;" vertex="1" parent="1">
          <mxGeometry x="1627.5" y="1990" width="125" height="50" as="geometry" />
        </mxCell>
        <mxCell id="uw1N92eC4PSF_1XVcPtk-123" value="PlotID" style="ellipse;whiteSpace=wrap;html=1;align=center;" vertex="1" parent="1">
          <mxGeometry x="1625" y="1920" width="120" height="50" as="geometry" />
        </mxCell>
        <mxCell id="uw1N92eC4PSF_1XVcPtk-124" value="ProfitID" style="ellipse;whiteSpace=wrap;html=1;align=center;" vertex="1" parent="1">
          <mxGeometry x="1625" y="1840" width="125" height="60" as="geometry" />
        </mxCell>
        <mxCell id="uw1N92eC4PSF_1XVcPtk-130" value="Profit" style="ellipse;whiteSpace=wrap;html=1;align=center;" vertex="1" parent="1">
          <mxGeometry x="1622.5" y="2220" width="130" height="60" as="geometry" />
        </mxCell>
      </root>
    </mxGraphModel>
  </diagram>
</mxfile>
